<svg xmlns="http://www.w3.org/2000/svg" viewBox="0 0 48 48">
    <path fill="#ffc107" d="M0,0h48v48H0V0z"/>
    <path fill="#388e3c" d="M4,4h40v40H4V4z"/>
    <path fill="#ffab00" d="M36,44l-8,0l2,2h8L36,44z"/>
    <path fill="#fff" d="M28,42h8v2h-8V42z M24,17a3,3,0,1,0,3,3A3,3,0,0,0,24,17z"/>
    <path fill="#a5d6a7" d="M16,21a2,2,0,1,0,2,2A2,2,0,0,0,16,21z"/>
    <path fill="#2e7d32" d="M4,4h40v2H4V4z"/>
    <path fill="#a5d6a7" d="M32,21a2,2,0,1,0,2,2A2,2,0,0,0,32,21z M37,28.688c0-0.445-0.163-0.874-0.468-1.199C35.839,26.75,34.363,26,32,26s-3.839,0.75-4.532,1.489C27.163,27.814,27,28.242,27,28.688V30h10V28.688z M21,28.688c0-0.445-0.163-0.874-0.468-1.199C19.839,26.75,18.363,26,16,26s-3.839,0.75-4.532,1.489C11.163,27.814,11,28.242,11,28.688V30h10V28.688z"/>
    <path fill="#fff" d="M30,27.742c0-0.534-0.196-1.048-0.562-1.438C28.607,25.417,26.835,24,24,24s-4.607,1.417-5.438,2.303C18.196,26.693,18,27.207,18,27.742V30h12V27.742z"/>
</svg>